<svg version="1.2" xmlns="http://www.w3.org/2000/svg" viewBox="0 0 96 96" width="96" height="96"><style>.a{fill:#926bff}.b{fill:none;stroke:#fff;stroke-width:3.5}.c{fill:none;stroke:#fff;stroke-linecap:round;stroke-width:3}</style><path fill-rule="evenodd" class="a" d="m20 0h56c11 0 20 9 20 20v56c0 11-9 20-20 20h-56c-11 0-20-9-20-20v-56c0-11 9-20 20-20z"/><path fill-rule="evenodd" class="b" d="m48 76c-15.5 0-28-12.5-28-28 0-15.5 12.5-28 28-28 15.5 0 28 12.5 28 28 0 15.5-12.5 28-28 28z"/><path fill-rule="evenodd" class="c" d="m20 48q10.5-21 21 0 10.5 21 21 0c7-14 14-14 14 0"/></svg>